<svg xmlns="http://www.w3.org/2000/svg" width="16" height="16" viewBox="0 0 16 16">
  <!-- Brain icon for MEMORY.md - purple to contrast with teal Claude icon -->
  <path d="M7.5 2C6.2 2 5.1 2.8 4.7 3.9 3.6 4 2.7 4.8 2.5 5.9 2.2 7.1 2.7 8.3 3.7 9c-.2.5-.2 1-.2 1.5C3.5 12.4 5.1 14 7 14c.3 0 .5 0 .8-.1V8.5C7 7.7 6.3 7 5.5 7c-.3 0-.5.2-.5.5s.2.5.5.5c.6 0 1 .4 1 1v5.5c.2-.1.3-.1.5-.2V2z" fill="#c586c0"/>
  <path d="M8.5 2v12.3c.2.1.3.1.5.2V9c0-.6.4-1 1-1 .3 0 .5-.2.5-.5S10.3 7 10 7c-.8 0-1.5.7-1.5 1.5v5.4c.3.1.5.1.8.1 1.9 0 3.5-1.6 3.5-3.5 0-.5-.1-1-.2-1.5 1-.7 1.5-1.9 1.2-3.1-.2-1.1-1.1-1.9-2.2-2C11.2 2.8 10 2 8.8 2h-.3z" fill="#c586c0"/>
</svg>
